<mxfile host="app.diagrams.net" modified="2023-05-29T15:56:22.340Z" agent="Mozilla/5.0 (Windows NT 10.0; Win64; x64) AppleWebKit/537.36 (KHTML, like Gecko) Chrome/112.0.0.0 Safari/537.36 OPR/98.0.0.0" etag="GyTIlomWEPsCjkvcuHVo" version="21.3.4" type="github">
  <diagram id="C5RBs43oDa-KdzZeNtuy" name="Page-1">
    <mxGraphModel dx="2736" dy="985" grid="1" gridSize="10" guides="1" tooltips="1" connect="1" arrows="1" fold="1" page="1" pageScale="1" pageWidth="827" pageHeight="1169" math="0" shadow="0">
      <root>
        <mxCell id="WIyWlLk6GJQsqaUBKTNV-0" />
        <mxCell id="WIyWlLk6GJQsqaUBKTNV-1" parent="WIyWlLk6GJQsqaUBKTNV-0" />
        <mxCell id="zkfFHV4jXpPFQw0GAbJ--0" value="Post" style="swimlane;fontStyle=2;align=center;verticalAlign=top;childLayout=stackLayout;horizontal=1;startSize=26;horizontalStack=0;resizeParent=1;resizeLast=0;collapsible=1;marginBottom=0;rounded=0;shadow=0;strokeWidth=1;fillColor=#182E3E;strokeColor=#000000;fontColor=#FFFFFF;" parent="WIyWlLk6GJQsqaUBKTNV-1" vertex="1">
          <mxGeometry x="40" y="120" width="160" height="90" as="geometry">
            <mxRectangle x="230" y="140" width="160" height="26" as="alternateBounds" />
          </mxGeometry>
        </mxCell>
        <mxCell id="zkfFHV4jXpPFQw0GAbJ--4" value="" style="line;html=1;strokeWidth=1;align=left;verticalAlign=middle;spacingTop=-1;spacingLeft=3;spacingRight=3;rotatable=0;labelPosition=right;points=[];portConstraint=eastwest;strokeColor=#000000;" parent="zkfFHV4jXpPFQw0GAbJ--0" vertex="1">
          <mxGeometry y="26" width="160" height="60" as="geometry" />
        </mxCell>
        <mxCell id="zkfFHV4jXpPFQw0GAbJ--12" value="" style="endArrow=block;endSize=10;endFill=0;shadow=0;strokeWidth=1;rounded=0;edgeStyle=elbowEdgeStyle;elbow=vertical;exitX=0.5;exitY=0;exitDx=0;exitDy=0;" parent="WIyWlLk6GJQsqaUBKTNV-1" source="h_LcrECWtUdm9U_q2pZB-0" target="zkfFHV4jXpPFQw0GAbJ--0" edge="1">
          <mxGeometry width="160" relative="1" as="geometry">
            <mxPoint x="200" y="360" as="sourcePoint" />
            <mxPoint x="200" y="203" as="targetPoint" />
          </mxGeometry>
        </mxCell>
        <mxCell id="zkfFHV4jXpPFQw0GAbJ--16" value="" style="endArrow=block;endSize=10;endFill=0;shadow=0;strokeWidth=1;rounded=0;edgeStyle=elbowEdgeStyle;elbow=vertical;exitX=0.5;exitY=0;exitDx=0;exitDy=0;" parent="WIyWlLk6GJQsqaUBKTNV-1" source="h_LcrECWtUdm9U_q2pZB-18" target="zkfFHV4jXpPFQw0GAbJ--0" edge="1">
          <mxGeometry width="160" relative="1" as="geometry">
            <mxPoint x="410" y="360" as="sourcePoint" />
            <mxPoint x="310" y="271" as="targetPoint" />
          </mxGeometry>
        </mxCell>
        <mxCell id="h_LcrECWtUdm9U_q2pZB-97" style="edgeStyle=orthogonalEdgeStyle;rounded=0;orthogonalLoop=1;jettySize=auto;html=1;exitX=1;exitY=0.5;exitDx=0;exitDy=0;entryX=0;entryY=0.5;entryDx=0;entryDy=0;fontFamily=Helvetica;fontSize=12;fontColor=default;startSize=26;endArrow=diamondThin;endFill=1;endSize=12;" parent="WIyWlLk6GJQsqaUBKTNV-1" source="h_LcrECWtUdm9U_q2pZB-0" target="h_LcrECWtUdm9U_q2pZB-95" edge="1">
          <mxGeometry relative="1" as="geometry">
            <Array as="points">
              <mxPoint x="-10" y="440" />
              <mxPoint x="-10" y="440" />
            </Array>
          </mxGeometry>
        </mxCell>
        <mxCell id="h_LcrECWtUdm9U_q2pZB-0" value="ProPost" style="swimlane;fontStyle=0;align=center;verticalAlign=top;childLayout=stackLayout;horizontal=1;startSize=26;horizontalStack=0;resizeParent=1;resizeLast=0;collapsible=1;marginBottom=0;rounded=0;shadow=0;strokeWidth=1;fillColor=#182E3E;strokeColor=#000000;fontColor=#FFFFFF;" parent="WIyWlLk6GJQsqaUBKTNV-1" vertex="1">
          <mxGeometry x="-260" y="390" width="160" height="100" as="geometry">
            <mxRectangle x="550" y="140" width="160" height="26" as="alternateBounds" />
          </mxGeometry>
        </mxCell>
        <mxCell id="h_LcrECWtUdm9U_q2pZB-6" value="" style="line;html=1;strokeWidth=1;align=left;verticalAlign=middle;spacingTop=-1;spacingLeft=3;spacingRight=3;rotatable=0;labelPosition=right;points=[];portConstraint=eastwest;strokeColor=#000000;" parent="h_LcrECWtUdm9U_q2pZB-0" vertex="1">
          <mxGeometry y="26" width="160" height="60" as="geometry" />
        </mxCell>
        <mxCell id="h_LcrECWtUdm9U_q2pZB-18" value="PostAnimale" style="swimlane;fontStyle=0;align=center;verticalAlign=top;childLayout=stackLayout;horizontal=1;startSize=26;horizontalStack=0;resizeParent=1;resizeLast=0;collapsible=1;marginBottom=0;rounded=0;shadow=0;strokeWidth=1;fillColor=#182E3E;strokeColor=#000000;fontColor=#FFFFFF;" parent="WIyWlLk6GJQsqaUBKTNV-1" vertex="1">
          <mxGeometry x="334" y="390" width="160" height="100" as="geometry">
            <mxRectangle x="550" y="140" width="160" height="26" as="alternateBounds" />
          </mxGeometry>
        </mxCell>
        <mxCell id="h_LcrECWtUdm9U_q2pZB-19" value="" style="line;html=1;strokeWidth=1;align=left;verticalAlign=middle;spacingTop=-1;spacingLeft=3;spacingRight=3;rotatable=0;labelPosition=right;points=[];portConstraint=eastwest;strokeColor=#000000;" parent="h_LcrECWtUdm9U_q2pZB-18" vertex="1">
          <mxGeometry y="26" width="160" height="60" as="geometry" />
        </mxCell>
        <mxCell id="h_LcrECWtUdm9U_q2pZB-29" style="edgeStyle=orthogonalEdgeStyle;rounded=0;orthogonalLoop=1;jettySize=auto;html=1;exitX=0.5;exitY=0;exitDx=0;exitDy=0;entryX=0.5;entryY=1;entryDx=0;entryDy=0;fontFamily=Helvetica;fontSize=12;fontColor=default;startSize=26;endArrow=none;endFill=0;" parent="WIyWlLk6GJQsqaUBKTNV-1" source="h_LcrECWtUdm9U_q2pZB-20" target="h_LcrECWtUdm9U_q2pZB-18" edge="1">
          <mxGeometry relative="1" as="geometry" />
        </mxCell>
        <mxCell id="h_LcrECWtUdm9U_q2pZB-91" style="edgeStyle=orthogonalEdgeStyle;rounded=0;orthogonalLoop=1;jettySize=auto;html=1;exitX=1;exitY=0.25;exitDx=0;exitDy=0;entryX=-0.003;entryY=0.965;entryDx=0;entryDy=0;fontFamily=Helvetica;fontSize=12;fontColor=default;startSize=26;entryPerimeter=0;endArrow=none;endFill=0;" parent="WIyWlLk6GJQsqaUBKTNV-1" target="h_LcrECWtUdm9U_q2pZB-87" edge="1">
          <mxGeometry relative="1" as="geometry">
            <mxPoint x="494" y="637.5" as="sourcePoint" />
            <mxPoint x="589.8400000000001" y="595.246" as="targetPoint" />
            <Array as="points">
              <mxPoint x="550" y="638" />
              <mxPoint x="550" y="595" />
            </Array>
          </mxGeometry>
        </mxCell>
        <mxCell id="h_LcrECWtUdm9U_q2pZB-20" value="Animale" style="swimlane;fontStyle=0;align=center;verticalAlign=top;childLayout=stackLayout;horizontal=1;startSize=26;horizontalStack=0;resizeParent=1;resizeLast=0;collapsible=1;marginBottom=0;rounded=0;shadow=0;strokeWidth=1;fillColor=#182E3E;strokeColor=#000000;fontColor=#FFFFFF;" parent="WIyWlLk6GJQsqaUBKTNV-1" vertex="1">
          <mxGeometry x="334" y="610" width="160" height="110" as="geometry">
            <mxRectangle x="550" y="140" width="160" height="26" as="alternateBounds" />
          </mxGeometry>
        </mxCell>
        <mxCell id="h_LcrECWtUdm9U_q2pZB-21" value=" -razza: String" style="text;align=left;verticalAlign=top;spacingLeft=4;spacingRight=4;overflow=hidden;rotatable=0;points=[[0,0.5],[1,0.5]];portConstraint=eastwest;" parent="h_LcrECWtUdm9U_q2pZB-20" vertex="1">
          <mxGeometry y="26" width="160" height="26" as="geometry" />
        </mxCell>
        <mxCell id="h_LcrECWtUdm9U_q2pZB-23" value=" -specie: String" style="text;align=left;verticalAlign=top;spacingLeft=4;spacingRight=4;overflow=hidden;rotatable=0;points=[[0,0.5],[1,0.5]];portConstraint=eastwest;rounded=0;shadow=0;html=0;" parent="h_LcrECWtUdm9U_q2pZB-20" vertex="1">
          <mxGeometry y="52" width="160" height="26" as="geometry" />
        </mxCell>
        <mxCell id="h_LcrECWtUdm9U_q2pZB-26" value="" style="line;html=1;strokeWidth=1;align=left;verticalAlign=middle;spacingTop=-1;spacingLeft=3;spacingRight=3;rotatable=0;labelPosition=right;points=[];portConstraint=eastwest;strokeColor=#000000;" parent="h_LcrECWtUdm9U_q2pZB-20" vertex="1">
          <mxGeometry y="78" width="160" height="8" as="geometry" />
        </mxCell>
        <mxCell id="h_LcrECWtUdm9U_q2pZB-43" style="edgeStyle=orthogonalEdgeStyle;rounded=0;orthogonalLoop=1;jettySize=auto;html=1;exitX=0.5;exitY=0;exitDx=0;exitDy=0;entryX=0.5;entryY=1;entryDx=0;entryDy=0;fontFamily=Helvetica;fontSize=12;fontColor=default;startSize=13;endArrow=none;endFill=0;startArrow=diamondThin;startFill=1;" parent="WIyWlLk6GJQsqaUBKTNV-1" source="h_LcrECWtUdm9U_q2pZB-34" target="h_LcrECWtUdm9U_q2pZB-20" edge="1">
          <mxGeometry relative="1" as="geometry">
            <Array as="points">
              <mxPoint x="414" y="750" />
              <mxPoint x="414" y="750" />
            </Array>
          </mxGeometry>
        </mxCell>
        <mxCell id="h_LcrECWtUdm9U_q2pZB-34" value="ProfiloUtente" style="swimlane;fontStyle=0;align=center;verticalAlign=top;childLayout=stackLayout;horizontal=1;startSize=26;horizontalStack=0;resizeParent=1;resizeLast=0;collapsible=1;marginBottom=0;rounded=0;shadow=0;strokeWidth=1;fillColor=#182E3E;strokeColor=#000000;fontColor=#FFFFFF;" parent="WIyWlLk6GJQsqaUBKTNV-1" vertex="1">
          <mxGeometry x="334" y="770" width="160" height="140" as="geometry">
            <mxRectangle x="550" y="140" width="160" height="26" as="alternateBounds" />
          </mxGeometry>
        </mxCell>
        <mxCell id="h_LcrECWtUdm9U_q2pZB-36" value=" -cognome: String" style="text;align=left;verticalAlign=top;spacingLeft=4;spacingRight=4;overflow=hidden;rotatable=0;points=[[0,0.5],[1,0.5]];portConstraint=eastwest;rounded=0;shadow=0;html=0;" parent="h_LcrECWtUdm9U_q2pZB-34" vertex="1">
          <mxGeometry y="26" width="160" height="26" as="geometry" />
        </mxCell>
        <mxCell id="h_LcrECWtUdm9U_q2pZB-82" style="edgeStyle=orthogonalEdgeStyle;rounded=0;orthogonalLoop=1;jettySize=auto;html=1;exitX=1;exitY=0.5;exitDx=0;exitDy=0;fontFamily=Helvetica;fontSize=12;fontColor=default;startSize=26;endArrow=none;endFill=0;" parent="h_LcrECWtUdm9U_q2pZB-34" source="h_LcrECWtUdm9U_q2pZB-38" edge="1">
          <mxGeometry relative="1" as="geometry">
            <mxPoint x="236" y="-10" as="targetPoint" />
            <Array as="points">
              <mxPoint x="216" y="65" />
              <mxPoint x="216" y="-10" />
            </Array>
          </mxGeometry>
        </mxCell>
        <mxCell id="h_LcrECWtUdm9U_q2pZB-38" value=" -zona: String" style="text;align=left;verticalAlign=top;spacingLeft=4;spacingRight=4;overflow=hidden;rotatable=0;points=[[0,0.5],[1,0.5]];portConstraint=eastwest;rounded=0;shadow=0;html=0;" parent="h_LcrECWtUdm9U_q2pZB-34" vertex="1">
          <mxGeometry y="52" width="160" height="26" as="geometry" />
        </mxCell>
        <mxCell id="h_LcrECWtUdm9U_q2pZB-39" value=" -telefono: String" style="text;align=left;verticalAlign=top;spacingLeft=4;spacingRight=4;overflow=hidden;rotatable=0;points=[[0,0.5],[1,0.5]];portConstraint=eastwest;rounded=0;shadow=0;html=0;" parent="h_LcrECWtUdm9U_q2pZB-34" vertex="1">
          <mxGeometry y="78" width="160" height="26" as="geometry" />
        </mxCell>
        <mxCell id="h_LcrECWtUdm9U_q2pZB-40" value="" style="line;html=1;strokeWidth=1;align=left;verticalAlign=middle;spacingTop=-1;spacingLeft=3;spacingRight=3;rotatable=0;labelPosition=right;points=[];portConstraint=eastwest;strokeColor=#000000;" parent="h_LcrECWtUdm9U_q2pZB-34" vertex="1">
          <mxGeometry y="104" width="160" height="8" as="geometry" />
        </mxCell>
        <mxCell id="h_LcrECWtUdm9U_q2pZB-46" style="edgeStyle=orthogonalEdgeStyle;rounded=0;orthogonalLoop=1;jettySize=auto;html=1;exitX=1;exitY=0.5;exitDx=0;exitDy=0;entryX=0;entryY=0.5;entryDx=0;entryDy=0;fontFamily=Helvetica;fontSize=12;fontColor=default;startSize=26;endArrow=diamondThin;endFill=1;sourcePerimeterSpacing=12;endSize=12;" parent="WIyWlLk6GJQsqaUBKTNV-1" source="h_LcrECWtUdm9U_q2pZB-44" target="h_LcrECWtUdm9U_q2pZB-38" edge="1">
          <mxGeometry relative="1" as="geometry">
            <Array as="points">
              <mxPoint x="250" y="835" />
              <mxPoint x="250" y="835" />
            </Array>
          </mxGeometry>
        </mxCell>
        <mxCell id="h_LcrECWtUdm9U_q2pZB-63" style="edgeStyle=orthogonalEdgeStyle;orthogonalLoop=1;jettySize=auto;html=1;exitX=0.75;exitY=1;exitDx=0;exitDy=0;entryX=1;entryY=0.75;entryDx=0;entryDy=0;fontFamily=Helvetica;fontSize=12;fontColor=default;startSize=26;rounded=0;endArrow=open;endFill=0;" parent="WIyWlLk6GJQsqaUBKTNV-1" source="h_LcrECWtUdm9U_q2pZB-44" target="h_LcrECWtUdm9U_q2pZB-18" edge="1">
          <mxGeometry relative="1" as="geometry">
            <Array as="points">
              <mxPoint x="130" y="970" />
              <mxPoint x="780" y="970" />
              <mxPoint x="780" y="465" />
            </Array>
          </mxGeometry>
        </mxCell>
        <mxCell id="h_LcrECWtUdm9U_q2pZB-44" value="UtenteStandard" style="swimlane;fontStyle=0;align=center;verticalAlign=top;childLayout=stackLayout;horizontal=1;startSize=26;horizontalStack=0;resizeParent=1;resizeLast=0;collapsible=1;marginBottom=0;rounded=0;shadow=0;strokeWidth=1;fillColor=#182E3E;strokeColor=#000000;fontColor=#FFFFFF;" parent="WIyWlLk6GJQsqaUBKTNV-1" vertex="1">
          <mxGeometry x="10" y="785" width="160" height="100" as="geometry">
            <mxRectangle x="550" y="140" width="160" height="26" as="alternateBounds" />
          </mxGeometry>
        </mxCell>
        <mxCell id="h_LcrECWtUdm9U_q2pZB-45" value="" style="line;html=1;strokeWidth=1;align=left;verticalAlign=middle;spacingTop=-1;spacingLeft=3;spacingRight=3;rotatable=0;labelPosition=right;points=[];portConstraint=eastwest;strokeColor=#000000;" parent="h_LcrECWtUdm9U_q2pZB-44" vertex="1">
          <mxGeometry y="26" width="160" height="60" as="geometry" />
        </mxCell>
        <mxCell id="h_LcrECWtUdm9U_q2pZB-47" value="1" style="text;html=1;align=center;verticalAlign=middle;resizable=0;points=[];autosize=1;strokeColor=none;fillColor=none;fontSize=12;fontFamily=Helvetica;fontColor=default;" parent="WIyWlLk6GJQsqaUBKTNV-1" vertex="1">
          <mxGeometry x="165" y="808" width="30" height="30" as="geometry" />
        </mxCell>
        <mxCell id="h_LcrECWtUdm9U_q2pZB-48" value="1" style="text;html=1;align=center;verticalAlign=middle;resizable=0;points=[];autosize=1;strokeColor=none;fillColor=none;fontSize=12;fontFamily=Helvetica;fontColor=default;" parent="WIyWlLk6GJQsqaUBKTNV-1" vertex="1">
          <mxGeometry x="305" y="838" width="30" height="30" as="geometry" />
        </mxCell>
        <mxCell id="h_LcrECWtUdm9U_q2pZB-55" style="rounded=0;orthogonalLoop=1;jettySize=auto;html=1;exitX=0.5;exitY=0;exitDx=0;exitDy=0;entryX=0.5;entryY=1;entryDx=0;entryDy=0;fontFamily=Helvetica;fontSize=12;fontColor=default;startSize=26;" parent="WIyWlLk6GJQsqaUBKTNV-1" source="h_LcrECWtUdm9U_q2pZB-49" target="h_LcrECWtUdm9U_q2pZB-0" edge="1">
          <mxGeometry relative="1" as="geometry" />
        </mxCell>
        <mxCell id="h_LcrECWtUdm9U_q2pZB-49" value="Professionista" style="swimlane;fontStyle=0;align=center;verticalAlign=top;childLayout=stackLayout;horizontal=1;startSize=26;horizontalStack=0;resizeParent=1;resizeLast=0;collapsible=1;marginBottom=0;rounded=0;shadow=0;strokeWidth=1;fillColor=#182E3E;strokeColor=#000000;fontColor=#FFFFFF;" parent="WIyWlLk6GJQsqaUBKTNV-1" vertex="1">
          <mxGeometry x="-260" y="775.5" width="160" height="115" as="geometry">
            <mxRectangle x="550" y="140" width="160" height="26" as="alternateBounds" />
          </mxGeometry>
        </mxCell>
        <mxCell id="h_LcrECWtUdm9U_q2pZB-50" value=" -professione: String" style="text;align=left;verticalAlign=top;spacingLeft=4;spacingRight=4;overflow=hidden;rotatable=0;points=[[0,0.5],[1,0.5]];portConstraint=eastwest;rounded=0;shadow=0;html=0;" parent="h_LcrECWtUdm9U_q2pZB-49" vertex="1">
          <mxGeometry y="26" width="160" height="26" as="geometry" />
        </mxCell>
        <mxCell id="h_LcrECWtUdm9U_q2pZB-51" value=" -specializzazione: String" style="text;align=left;verticalAlign=top;spacingLeft=4;spacingRight=4;overflow=hidden;rotatable=0;points=[[0,0.5],[1,0.5]];portConstraint=eastwest;rounded=0;shadow=0;html=0;" parent="h_LcrECWtUdm9U_q2pZB-49" vertex="1">
          <mxGeometry y="52" width="160" height="26" as="geometry" />
        </mxCell>
        <mxCell id="h_LcrECWtUdm9U_q2pZB-53" value="" style="line;html=1;strokeWidth=1;align=left;verticalAlign=middle;spacingTop=-1;spacingLeft=3;spacingRight=3;rotatable=0;labelPosition=right;points=[];portConstraint=eastwest;strokeColor=#000000;" parent="h_LcrECWtUdm9U_q2pZB-49" vertex="1">
          <mxGeometry y="78" width="160" height="8" as="geometry" />
        </mxCell>
        <mxCell id="h_LcrECWtUdm9U_q2pZB-54" style="edgeStyle=orthogonalEdgeStyle;rounded=0;orthogonalLoop=1;jettySize=auto;html=1;exitX=1;exitY=0.5;exitDx=0;exitDy=0;entryX=0;entryY=0.483;entryDx=0;entryDy=0;entryPerimeter=0;fontFamily=Helvetica;fontSize=12;fontColor=default;startSize=26;endArrow=block;endFill=0;" parent="WIyWlLk6GJQsqaUBKTNV-1" source="h_LcrECWtUdm9U_q2pZB-51" target="h_LcrECWtUdm9U_q2pZB-45" edge="1">
          <mxGeometry relative="1" as="geometry">
            <Array as="points">
              <mxPoint x="-45" y="841" />
            </Array>
          </mxGeometry>
        </mxCell>
        <mxCell id="h_LcrECWtUdm9U_q2pZB-58" value="CondivisionePro" style="swimlane;fontStyle=0;align=center;verticalAlign=top;childLayout=stackLayout;horizontal=1;startSize=26;horizontalStack=0;resizeParent=1;resizeLast=0;collapsible=1;marginBottom=0;rounded=0;shadow=0;strokeWidth=1;fillColor=#182E3E;strokeColor=#000000;fontColor=#FFFFFF;" parent="WIyWlLk6GJQsqaUBKTNV-1" vertex="1">
          <mxGeometry x="40" y="585.5" width="160" height="90" as="geometry">
            <mxRectangle x="550" y="140" width="160" height="26" as="alternateBounds" />
          </mxGeometry>
        </mxCell>
        <mxCell id="h_LcrECWtUdm9U_q2pZB-59" value=" -timestamp: Date" style="text;align=left;verticalAlign=top;spacingLeft=4;spacingRight=4;overflow=hidden;rotatable=0;points=[[0,0.5],[1,0.5]];portConstraint=eastwest;rounded=0;shadow=0;html=0;" parent="h_LcrECWtUdm9U_q2pZB-58" vertex="1">
          <mxGeometry y="26" width="160" height="26" as="geometry" />
        </mxCell>
        <mxCell id="h_LcrECWtUdm9U_q2pZB-61" value="" style="line;html=1;strokeWidth=1;align=left;verticalAlign=middle;spacingTop=-1;spacingLeft=3;spacingRight=3;rotatable=0;labelPosition=right;points=[];portConstraint=eastwest;strokeColor=#000000;" parent="h_LcrECWtUdm9U_q2pZB-58" vertex="1">
          <mxGeometry y="52" width="160" height="8" as="geometry" />
        </mxCell>
        <mxCell id="h_LcrECWtUdm9U_q2pZB-101" style="edgeStyle=orthogonalEdgeStyle;rounded=0;orthogonalLoop=1;jettySize=auto;html=1;exitX=1;exitY=0.5;exitDx=0;exitDy=0;entryX=0;entryY=0.5;entryDx=0;entryDy=0;fontFamily=Helvetica;fontSize=12;fontColor=default;startSize=26;dashed=1;endArrow=none;endFill=0;" parent="WIyWlLk6GJQsqaUBKTNV-1" source="h_LcrECWtUdm9U_q2pZB-56" target="h_LcrECWtUdm9U_q2pZB-59" edge="1">
          <mxGeometry relative="1" as="geometry">
            <Array as="points">
              <mxPoint x="-107" y="625" />
            </Array>
          </mxGeometry>
        </mxCell>
        <mxCell id="h_LcrECWtUdm9U_q2pZB-56" value="" style="rhombus;whiteSpace=wrap;html=1;rounded=0;shadow=0;strokeWidth=2;fontFamily=Helvetica;fontSize=12;startSize=26;fillColor=#FFFFFF;fontColor=#333333;strokeColor=#182E3E;" parent="WIyWlLk6GJQsqaUBKTNV-1" vertex="1">
          <mxGeometry x="-215" y="592" width="70" height="65" as="geometry" />
        </mxCell>
        <mxCell id="h_LcrECWtUdm9U_q2pZB-64" value="Condivide" style="text;html=1;align=center;verticalAlign=middle;resizable=0;points=[];autosize=1;strokeColor=none;fillColor=none;fontSize=12;fontFamily=Helvetica;fontColor=default;" parent="WIyWlLk6GJQsqaUBKTNV-1" vertex="1">
          <mxGeometry x="700" y="940" width="80" height="30" as="geometry" />
        </mxCell>
        <mxCell id="h_LcrECWtUdm9U_q2pZB-65" value="*" style="text;html=1;align=center;verticalAlign=middle;resizable=0;points=[];autosize=1;strokeColor=none;fillColor=none;fontSize=12;fontFamily=Helvetica;fontColor=default;" parent="WIyWlLk6GJQsqaUBKTNV-1" vertex="1">
          <mxGeometry x="130" y="885" width="30" height="30" as="geometry" />
        </mxCell>
        <mxCell id="h_LcrECWtUdm9U_q2pZB-67" value="1" style="text;html=1;align=center;verticalAlign=middle;resizable=0;points=[];autosize=1;strokeColor=none;fillColor=none;fontSize=12;fontFamily=Helvetica;fontColor=default;" parent="WIyWlLk6GJQsqaUBKTNV-1" vertex="1">
          <mxGeometry x="494" y="430" width="30" height="30" as="geometry" />
        </mxCell>
        <mxCell id="h_LcrECWtUdm9U_q2pZB-72" value="Profilo" style="swimlane;fontStyle=2;align=center;verticalAlign=top;childLayout=stackLayout;horizontal=1;startSize=26;horizontalStack=0;resizeParent=1;resizeLast=0;collapsible=1;marginBottom=0;rounded=0;shadow=0;strokeWidth=1;fillColor=#182E3E;strokeColor=#000000;fontColor=#FFFFFF;" parent="WIyWlLk6GJQsqaUBKTNV-1" vertex="1">
          <mxGeometry x="590" y="688" width="160" height="140" as="geometry">
            <mxRectangle x="550" y="140" width="160" height="26" as="alternateBounds" />
          </mxGeometry>
        </mxCell>
        <mxCell id="h_LcrECWtUdm9U_q2pZB-73" value=" -nome: String" style="text;align=left;verticalAlign=top;spacingLeft=4;spacingRight=4;overflow=hidden;rotatable=0;points=[[0,0.5],[1,0.5]];portConstraint=eastwest;rounded=0;shadow=0;html=0;" parent="h_LcrECWtUdm9U_q2pZB-72" vertex="1">
          <mxGeometry y="26" width="160" height="22" as="geometry" />
        </mxCell>
        <mxCell id="h_LcrECWtUdm9U_q2pZB-74" value=" -descrizione: String" style="text;align=left;verticalAlign=top;spacingLeft=4;spacingRight=4;overflow=hidden;rotatable=0;points=[[0,0.5],[1,0.5]];portConstraint=eastwest;rounded=0;shadow=0;html=0;" parent="h_LcrECWtUdm9U_q2pZB-72" vertex="1">
          <mxGeometry y="48" width="160" height="26" as="geometry" />
        </mxCell>
        <mxCell id="h_LcrECWtUdm9U_q2pZB-75" value=" -immagineProfilo: Image" style="text;align=left;verticalAlign=top;spacingLeft=4;spacingRight=4;overflow=hidden;rotatable=0;points=[[0,0.5],[1,0.5]];portConstraint=eastwest;rounded=0;shadow=0;html=0;" parent="h_LcrECWtUdm9U_q2pZB-72" vertex="1">
          <mxGeometry y="74" width="160" height="26" as="geometry" />
        </mxCell>
        <mxCell id="h_LcrECWtUdm9U_q2pZB-76" value="" style="line;html=1;strokeWidth=1;align=left;verticalAlign=middle;spacingTop=-1;spacingLeft=3;spacingRight=3;rotatable=0;labelPosition=right;points=[];portConstraint=eastwest;strokeColor=#000000;" parent="h_LcrECWtUdm9U_q2pZB-72" vertex="1">
          <mxGeometry y="100" width="160" height="8" as="geometry" />
        </mxCell>
        <mxCell id="h_LcrECWtUdm9U_q2pZB-77" style="edgeStyle=orthogonalEdgeStyle;rounded=0;orthogonalLoop=1;jettySize=auto;html=1;exitX=1;exitY=0.5;exitDx=0;exitDy=0;fontFamily=Helvetica;fontSize=12;fontColor=default;startSize=26;entryX=0.003;entryY=0.948;entryDx=0;entryDy=0;entryPerimeter=0;endArrow=block;endFill=0;" parent="WIyWlLk6GJQsqaUBKTNV-1" source="h_LcrECWtUdm9U_q2pZB-23" target="h_LcrECWtUdm9U_q2pZB-74" edge="1">
          <mxGeometry relative="1" as="geometry">
            <mxPoint x="560" y="730" as="targetPoint" />
            <Array as="points">
              <mxPoint x="550" y="675" />
              <mxPoint x="550" y="760" />
              <mxPoint x="591" y="760" />
            </Array>
          </mxGeometry>
        </mxCell>
        <mxCell id="h_LcrECWtUdm9U_q2pZB-85" value="&lt;&lt;Enumeration&gt;&gt;&#xa;Sesso" style="swimlane;fontStyle=0;align=center;verticalAlign=top;childLayout=stackLayout;horizontal=1;startSize=40;horizontalStack=0;resizeParent=1;resizeLast=0;collapsible=1;marginBottom=0;rounded=0;shadow=0;strokeWidth=1;fillColor=#182E3E;strokeColor=#000000;fontColor=#FFFFFF;" parent="WIyWlLk6GJQsqaUBKTNV-1" vertex="1">
          <mxGeometry x="590" y="530" width="160" height="92" as="geometry">
            <mxRectangle x="550" y="140" width="160" height="26" as="alternateBounds" />
          </mxGeometry>
        </mxCell>
        <mxCell id="h_LcrECWtUdm9U_q2pZB-87" value="Maschio" style="text;align=left;verticalAlign=top;spacingLeft=4;spacingRight=4;overflow=hidden;rotatable=0;points=[[0,0.5],[1,0.5]];portConstraint=eastwest;" parent="h_LcrECWtUdm9U_q2pZB-85" vertex="1">
          <mxGeometry y="40" width="160" height="26" as="geometry" />
        </mxCell>
        <mxCell id="h_LcrECWtUdm9U_q2pZB-88" value="Femmina" style="text;align=left;verticalAlign=top;spacingLeft=4;spacingRight=4;overflow=hidden;rotatable=0;points=[[0,0.5],[1,0.5]];portConstraint=eastwest;rounded=0;shadow=0;html=0;" parent="h_LcrECWtUdm9U_q2pZB-85" vertex="1">
          <mxGeometry y="66" width="160" height="26" as="geometry" />
        </mxCell>
        <mxCell id="h_LcrECWtUdm9U_q2pZB-93" value="Commento" style="swimlane;fontStyle=0;align=center;verticalAlign=top;childLayout=stackLayout;horizontal=1;startSize=26;horizontalStack=0;resizeParent=1;resizeLast=0;collapsible=1;marginBottom=0;rounded=0;shadow=0;strokeWidth=1;fillColor=#182E3E;strokeColor=#000000;fontColor=#FFFFFF;" parent="WIyWlLk6GJQsqaUBKTNV-1" vertex="1">
          <mxGeometry x="-580" y="490" width="160" height="100" as="geometry">
            <mxRectangle x="550" y="140" width="160" height="26" as="alternateBounds" />
          </mxGeometry>
        </mxCell>
        <mxCell id="h_LcrECWtUdm9U_q2pZB-94" value="" style="line;html=1;strokeWidth=1;align=left;verticalAlign=middle;spacingTop=-1;spacingLeft=3;spacingRight=3;rotatable=0;labelPosition=right;points=[];portConstraint=eastwest;strokeColor=#000000;" parent="h_LcrECWtUdm9U_q2pZB-93" vertex="1">
          <mxGeometry y="26" width="160" height="60" as="geometry" />
        </mxCell>
        <mxCell id="h_LcrECWtUdm9U_q2pZB-98" style="edgeStyle=orthogonalEdgeStyle;rounded=0;orthogonalLoop=1;jettySize=auto;html=1;exitX=1;exitY=0.5;exitDx=0;exitDy=0;entryX=0;entryY=0.5;entryDx=0;entryDy=0;fontFamily=Helvetica;fontSize=12;fontColor=default;startSize=26;endArrow=block;endFill=0;" parent="WIyWlLk6GJQsqaUBKTNV-1" source="h_LcrECWtUdm9U_q2pZB-95" target="h_LcrECWtUdm9U_q2pZB-36" edge="1">
          <mxGeometry relative="1" as="geometry" />
        </mxCell>
        <mxCell id="h_LcrECWtUdm9U_q2pZB-95" value="ProfiloProfessionista" style="swimlane;fontStyle=0;align=center;verticalAlign=top;childLayout=stackLayout;horizontal=1;startSize=26;horizontalStack=0;resizeParent=1;resizeLast=0;collapsible=1;marginBottom=0;rounded=0;shadow=0;strokeWidth=1;fillColor=#182E3E;strokeColor=#000000;fontColor=#FFFFFF;" parent="WIyWlLk6GJQsqaUBKTNV-1" vertex="1">
          <mxGeometry x="40" y="390" width="160" height="100" as="geometry">
            <mxRectangle x="550" y="140" width="160" height="26" as="alternateBounds" />
          </mxGeometry>
        </mxCell>
        <mxCell id="h_LcrECWtUdm9U_q2pZB-96" value="" style="line;html=1;strokeWidth=1;align=left;verticalAlign=middle;spacingTop=-1;spacingLeft=3;spacingRight=3;rotatable=0;labelPosition=right;points=[];portConstraint=eastwest;strokeColor=#000000;" parent="h_LcrECWtUdm9U_q2pZB-95" vertex="1">
          <mxGeometry y="26" width="160" height="60" as="geometry" />
        </mxCell>
        <mxCell id="h_LcrECWtUdm9U_q2pZB-99" value="1" style="text;html=1;align=center;verticalAlign=middle;resizable=0;points=[];autosize=1;strokeColor=none;fillColor=none;fontSize=12;fontFamily=Helvetica;fontColor=default;" parent="WIyWlLk6GJQsqaUBKTNV-1" vertex="1">
          <mxGeometry x="-105" y="408" width="30" height="30" as="geometry" />
        </mxCell>
        <mxCell id="h_LcrECWtUdm9U_q2pZB-100" value="*" style="text;html=1;align=center;verticalAlign=middle;resizable=0;points=[];autosize=1;strokeColor=none;fillColor=none;fontSize=12;fontFamily=Helvetica;fontColor=default;" parent="WIyWlLk6GJQsqaUBKTNV-1" vertex="1">
          <mxGeometry x="10" y="450" width="30" height="30" as="geometry" />
        </mxCell>
        <mxCell id="h_LcrECWtUdm9U_q2pZB-110" value="" style="ellipse;whiteSpace=wrap;html=1;aspect=fixed;rounded=0;shadow=0;strokeColor=#000000;strokeWidth=1;fontFamily=Helvetica;fontSize=12;fontColor=default;startSize=26;fillColor=#182E3E;" parent="WIyWlLk6GJQsqaUBKTNV-1" vertex="1">
          <mxGeometry width="10" as="geometry" />
        </mxCell>
        <mxCell id="h_LcrECWtUdm9U_q2pZB-113" style="edgeStyle=orthogonalEdgeStyle;rounded=0;orthogonalLoop=1;jettySize=auto;html=1;exitX=0.5;exitY=1;exitDx=0;exitDy=0;entryX=0.187;entryY=-0.005;entryDx=0;entryDy=0;entryPerimeter=0;fontFamily=Helvetica;fontSize=12;fontColor=default;startSize=26;endArrow=none;endFill=0;strokeColor=#182E3E;" parent="WIyWlLk6GJQsqaUBKTNV-1" source="h_LcrECWtUdm9U_q2pZB-111" target="zkfFHV4jXpPFQw0GAbJ--0" edge="1">
          <mxGeometry relative="1" as="geometry" />
        </mxCell>
        <mxCell id="h_LcrECWtUdm9U_q2pZB-111" value="" style="ellipse;whiteSpace=wrap;html=1;aspect=fixed;rounded=0;shadow=0;strokeWidth=1;fontFamily=Helvetica;fontSize=12;startSize=26;fillColor=none;strokeColor=#182E3E;" parent="WIyWlLk6GJQsqaUBKTNV-1" vertex="1">
          <mxGeometry x="60" y="80" width="20" height="20" as="geometry" />
        </mxCell>
        <mxCell id="h_LcrECWtUdm9U_q2pZB-114" value="ISegnalabile" style="text;html=1;align=center;verticalAlign=middle;resizable=0;points=[];autosize=1;strokeColor=none;fillColor=none;fontSize=12;fontFamily=Helvetica;fontColor=default;" parent="WIyWlLk6GJQsqaUBKTNV-1" vertex="1">
          <mxGeometry x="-20" y="90" width="90" height="30" as="geometry" />
        </mxCell>
        <mxCell id="h_LcrECWtUdm9U_q2pZB-115" value="&lt;&lt;Interface&gt;&gt;&#xa;ISegnalabile" style="swimlane;fontStyle=0;align=center;verticalAlign=top;childLayout=stackLayout;horizontal=1;startSize=40;horizontalStack=0;resizeParent=1;resizeLast=0;collapsible=1;marginBottom=0;rounded=0;shadow=0;strokeWidth=1;strokeColor=#000000;fillColor=#182E3E;fontColor=#FFFFFF;" parent="WIyWlLk6GJQsqaUBKTNV-1" vertex="1">
          <mxGeometry x="460" y="120" width="160" height="80" as="geometry">
            <mxRectangle x="550" y="140" width="160" height="26" as="alternateBounds" />
          </mxGeometry>
        </mxCell>
        <mxCell id="h_LcrECWtUdm9U_q2pZB-116" value="" style="line;html=1;strokeWidth=1;align=left;verticalAlign=middle;spacingTop=-1;spacingLeft=3;spacingRight=3;rotatable=0;labelPosition=right;points=[];portConstraint=eastwest;strokeColor=#000000;" parent="h_LcrECWtUdm9U_q2pZB-115" vertex="1">
          <mxGeometry y="40" width="160" height="10" as="geometry" />
        </mxCell>
        <mxCell id="h_LcrECWtUdm9U_q2pZB-117" value=" +segnala(Segnalazione s)" style="text;align=left;verticalAlign=top;spacingLeft=4;spacingRight=4;overflow=hidden;rotatable=0;points=[[0,0.5],[1,0.5]];portConstraint=eastwest;fontColor=#000000;" parent="h_LcrECWtUdm9U_q2pZB-115" vertex="1">
          <mxGeometry y="50" width="160" height="26" as="geometry" />
        </mxCell>
        <mxCell id="h_LcrECWtUdm9U_q2pZB-118" style="edgeStyle=orthogonalEdgeStyle;rounded=0;orthogonalLoop=1;jettySize=auto;html=1;exitX=0.5;exitY=1;exitDx=0;exitDy=0;entryX=0.187;entryY=-0.005;entryDx=0;entryDy=0;entryPerimeter=0;fontFamily=Helvetica;fontSize=12;fontColor=default;startSize=26;endArrow=none;endFill=0;strokeColor=#182E3E;" parent="WIyWlLk6GJQsqaUBKTNV-1" source="h_LcrECWtUdm9U_q2pZB-119" edge="1">
          <mxGeometry relative="1" as="geometry">
            <mxPoint x="-555" y="490" as="targetPoint" />
          </mxGeometry>
        </mxCell>
        <mxCell id="h_LcrECWtUdm9U_q2pZB-119" value="" style="ellipse;whiteSpace=wrap;html=1;aspect=fixed;rounded=0;shadow=0;strokeWidth=1;fontFamily=Helvetica;fontSize=12;startSize=26;fillColor=none;strokeColor=#182E3E;" parent="WIyWlLk6GJQsqaUBKTNV-1" vertex="1">
          <mxGeometry x="-565" y="450" width="20" height="20" as="geometry" />
        </mxCell>
        <mxCell id="h_LcrECWtUdm9U_q2pZB-120" value="ISegnalabile" style="text;html=1;align=center;verticalAlign=middle;resizable=0;points=[];autosize=1;strokeColor=none;fillColor=none;fontSize=12;fontFamily=Helvetica;fontColor=default;" parent="WIyWlLk6GJQsqaUBKTNV-1" vertex="1">
          <mxGeometry x="-660" y="460" width="90" height="30" as="geometry" />
        </mxCell>
        <mxCell id="6e565pauUiY7t5-ItbMU-1" value="" style="rhombus;whiteSpace=wrap;html=1;rounded=0;shadow=0;strokeWidth=2;fontFamily=Helvetica;fontSize=12;startSize=26;fillColor=#FFFFFF;fontColor=#333333;strokeColor=#182E3E;" vertex="1" parent="WIyWlLk6GJQsqaUBKTNV-1">
          <mxGeometry x="-355" y="420" width="70" height="65" as="geometry" />
        </mxCell>
        <mxCell id="6e565pauUiY7t5-ItbMU-3" value="" style="endArrow=classic;html=1;rounded=0;exitX=0.5;exitY=0;exitDx=0;exitDy=0;" edge="1" parent="WIyWlLk6GJQsqaUBKTNV-1" source="6e565pauUiY7t5-ItbMU-1">
          <mxGeometry width="50" height="50" relative="1" as="geometry">
            <mxPoint x="-315" y="420" as="sourcePoint" />
            <mxPoint x="40" y="200" as="targetPoint" />
            <Array as="points">
              <mxPoint x="-320" y="200" />
            </Array>
          </mxGeometry>
        </mxCell>
        <mxCell id="6e565pauUiY7t5-ItbMU-4" value="" style="endArrow=none;dashed=1;html=1;rounded=0;entryX=0;entryY=0.5;entryDx=0;entryDy=0;exitX=0.5;exitY=0;exitDx=0;exitDy=0;" edge="1" parent="WIyWlLk6GJQsqaUBKTNV-1" target="6e565pauUiY7t5-ItbMU-1">
          <mxGeometry width="50" height="50" relative="1" as="geometry">
            <mxPoint x="-500.0000000000001" y="491.9999999999999" as="sourcePoint" />
            <mxPoint x="-355" y="454.5000000000001" as="targetPoint" />
            <Array as="points">
              <mxPoint x="-500" y="452" />
            </Array>
          </mxGeometry>
        </mxCell>
        <mxCell id="6e565pauUiY7t5-ItbMU-5" value="" style="endArrow=none;html=1;rounded=0;exitX=0.5;exitY=1;exitDx=0;exitDy=0;" edge="1" parent="WIyWlLk6GJQsqaUBKTNV-1" source="6e565pauUiY7t5-ItbMU-1">
          <mxGeometry width="50" height="50" relative="1" as="geometry">
            <mxPoint x="-320" y="490" as="sourcePoint" />
            <mxPoint x="40" y="885" as="targetPoint" />
            <Array as="points">
              <mxPoint x="-320" y="978" />
              <mxPoint x="40" y="978" />
            </Array>
          </mxGeometry>
        </mxCell>
        <mxCell id="6e565pauUiY7t5-ItbMU-6" value="" style="rhombus;whiteSpace=wrap;html=1;rounded=0;shadow=0;strokeWidth=2;fontFamily=Helvetica;fontSize=12;startSize=26;fillColor=#FFFFFF;fontColor=#333333;strokeColor=#182E3E;" vertex="1" parent="WIyWlLk6GJQsqaUBKTNV-1">
          <mxGeometry x="-425" y="820.5" width="70" height="65" as="geometry" />
        </mxCell>
        <mxCell id="6e565pauUiY7t5-ItbMU-7" value="" style="endArrow=none;html=1;rounded=0;exitX=0.5;exitY=1;exitDx=0;exitDy=0;entryX=0.5;entryY=1;entryDx=0;entryDy=0;" edge="1" parent="WIyWlLk6GJQsqaUBKTNV-1" source="6e565pauUiY7t5-ItbMU-6" target="h_LcrECWtUdm9U_q2pZB-44">
          <mxGeometry width="50" height="50" relative="1" as="geometry">
            <mxPoint x="-200" y="810" as="sourcePoint" />
            <mxPoint x="80" y="1010" as="targetPoint" />
            <Array as="points">
              <mxPoint x="-390" y="1010" />
              <mxPoint x="90" y="1010" />
            </Array>
          </mxGeometry>
        </mxCell>
        <mxCell id="6e565pauUiY7t5-ItbMU-8" value="" style="endArrow=none;html=1;rounded=0;exitX=0.5;exitY=0;exitDx=0;exitDy=0;" edge="1" parent="WIyWlLk6GJQsqaUBKTNV-1" source="6e565pauUiY7t5-ItbMU-6">
          <mxGeometry width="50" height="50" relative="1" as="geometry">
            <mxPoint x="-200" y="680" as="sourcePoint" />
            <mxPoint x="40" y="160" as="targetPoint" />
            <Array as="points">
              <mxPoint x="-390" y="160" />
            </Array>
          </mxGeometry>
        </mxCell>
        <mxCell id="6e565pauUiY7t5-ItbMU-9" value="" style="endArrow=none;dashed=1;html=1;rounded=0;exitX=0;exitY=0.5;exitDx=0;exitDy=0;" edge="1" parent="WIyWlLk6GJQsqaUBKTNV-1" source="6e565pauUiY7t5-ItbMU-6">
          <mxGeometry width="50" height="50" relative="1" as="geometry">
            <mxPoint x="-200" y="750" as="sourcePoint" />
            <mxPoint x="-490" y="853" as="targetPoint" />
          </mxGeometry>
        </mxCell>
        <mxCell id="6e565pauUiY7t5-ItbMU-10" value="Like" style="swimlane;fontStyle=0;align=center;verticalAlign=top;childLayout=stackLayout;horizontal=1;startSize=26;horizontalStack=0;resizeParent=1;resizeLast=0;collapsible=1;marginBottom=0;rounded=0;shadow=0;strokeWidth=1;fillColor=#182E3E;strokeColor=#000000;fontColor=#FFFFFF;" vertex="1" parent="WIyWlLk6GJQsqaUBKTNV-1">
          <mxGeometry x="-650" y="820.5" width="160" height="100" as="geometry">
            <mxRectangle x="550" y="140" width="160" height="26" as="alternateBounds" />
          </mxGeometry>
        </mxCell>
        <mxCell id="6e565pauUiY7t5-ItbMU-11" value="" style="line;html=1;strokeWidth=1;align=left;verticalAlign=middle;spacingTop=-1;spacingLeft=3;spacingRight=3;rotatable=0;labelPosition=right;points=[];portConstraint=eastwest;strokeColor=#000000;" vertex="1" parent="6e565pauUiY7t5-ItbMU-10">
          <mxGeometry y="26" width="160" height="60" as="geometry" />
        </mxCell>
      </root>
    </mxGraphModel>
  </diagram>
</mxfile>
